<svg width="1172" height="215" viewBox="0 0 1172 215" fill="none" xmlns="http://www.w3.org/2000/svg">
<rect x="7.5" y="21" width="370" height="317" rx="8.5" fill="#EBF0EE" stroke="#C1C7D0"/>
<g filter="url(#filter0_d_34_2395)">
<circle cx="193" cy="101.5" r="40" fill="white"/>
</g>
<g clip-path="url(#clip0_34_2395)">
<path d="M205.27 100.396H214.704C214.851 100.396 214.999 100.249 214.999 100.101C214.336 90.2419 207.186 82.0747 197.753 80.0145C197.532 79.9409 197.31 80.2352 197.532 80.4559C201.954 85.3857 204.754 92.4492 205.049 100.175C204.975 100.322 205.123 100.396 205.27 100.396Z" fill="#091E42"/>
<path d="M193.184 79.5C193.11 79.5 193.037 79.5 192.963 79.5C192.889 79.5 192.816 79.5 192.742 79.5C187.067 83.8411 183.529 91.5669 183.161 100.102C183.161 100.249 183.308 100.396 183.455 100.396H202.471C202.618 100.396 202.765 100.249 202.765 100.102C202.471 91.5669 198.859 83.8411 193.184 79.5Z" fill="#36B37E"/>
<path d="M183.455 102.604C183.308 102.604 183.161 102.751 183.161 102.898C183.529 111.507 187.067 119.159 192.742 123.5C192.816 123.5 192.889 123.5 192.963 123.5C193.037 123.5 193.11 123.5 193.184 123.5C198.859 119.159 202.397 111.433 202.765 102.898C202.765 102.751 202.618 102.604 202.471 102.604H183.455Z" fill="#091E42"/>
<path d="M204.975 102.824C204.681 110.55 201.954 117.614 197.532 122.543C197.384 122.764 197.532 123.058 197.753 122.985C207.186 120.925 214.409 112.757 214.999 102.898C214.999 102.751 214.851 102.604 214.704 102.604H205.27C205.123 102.604 204.975 102.751 204.975 102.824Z" fill="#36B37E"/>
<path d="M180.728 102.604H171.294C171.147 102.604 171 102.751 171 102.898C171.589 112.757 178.812 120.925 188.246 122.985C188.467 123.058 188.688 122.764 188.467 122.543C183.971 117.614 181.244 110.55 180.949 102.824C181.023 102.751 180.876 102.604 180.728 102.604Z" fill="#36B37E"/>
<path d="M181.023 100.175C181.318 92.4492 184.045 85.3857 188.467 80.4559C188.614 80.2352 188.467 79.9409 188.246 80.0145C178.812 82.0747 171.589 90.2419 171 100.101C171 100.249 171.147 100.396 171.294 100.396H180.728C180.876 100.396 181.023 100.322 181.023 100.175Z" fill="#091E42"/>
</g>
<g clip-path="url(#clip1_34_2395)">
<path d="M130.331 194.5H141.18V191.849H133.493V177.045H130.331V194.5ZM147.555 194.764C149.609 194.764 150.837 193.801 151.399 192.702H151.501V194.5H154.467V185.739C154.467 182.278 151.646 181.239 149.149 181.239C146.396 181.239 144.283 182.466 143.601 184.852L146.482 185.261C146.788 184.366 147.658 183.599 149.166 183.599C150.598 183.599 151.382 184.332 151.382 185.619V185.67C151.382 186.557 150.453 186.599 148.143 186.847C145.604 187.119 143.175 187.878 143.175 190.827C143.175 193.401 145.058 194.764 147.555 194.764ZM148.357 192.497C147.07 192.497 146.149 191.909 146.149 190.776C146.149 189.591 147.18 189.097 148.561 188.901C149.371 188.79 150.99 188.585 151.391 188.261V189.804C151.391 191.261 150.214 192.497 148.357 192.497ZM160.655 186.83C160.655 184.938 161.797 183.847 163.425 183.847C165.018 183.847 165.973 184.895 165.973 186.642V194.5H169.058V186.165C169.067 183.028 167.277 181.239 164.575 181.239C162.615 181.239 161.268 182.176 160.672 183.634H160.518V181.409H157.57V194.5H160.655V186.83ZM177.888 199.631C181.425 199.631 184.033 198.011 184.033 194.713V181.409H180.99V183.574H180.82C180.351 182.628 179.371 181.239 177.061 181.239C174.036 181.239 171.658 183.608 171.658 187.912C171.658 192.182 174.036 194.312 177.053 194.312C179.294 194.312 180.342 193.111 180.82 192.148H180.973V194.628C180.973 196.503 179.695 197.295 177.939 197.295C176.081 197.295 175.263 196.418 174.888 195.702L172.109 196.375C172.672 198.156 174.555 199.631 177.888 199.631ZM177.913 191.892C175.876 191.892 174.803 190.307 174.803 187.895C174.803 185.517 175.859 183.77 177.913 183.77C179.899 183.77 180.99 185.415 180.99 187.895C180.99 190.392 179.882 191.892 177.913 191.892ZM195.538 188.994C195.538 190.989 194.115 191.977 192.751 191.977C191.268 191.977 190.28 190.929 190.28 189.267V181.409H187.195V189.744C187.195 192.889 188.984 194.67 191.558 194.67C193.518 194.67 194.899 193.639 195.496 192.173H195.632V194.5H198.624V181.409H195.538V188.994ZM205.563 194.764C207.617 194.764 208.844 193.801 209.407 192.702H209.509V194.5H212.475V185.739C212.475 182.278 209.654 181.239 207.157 181.239C204.404 181.239 202.29 182.466 201.609 184.852L204.489 185.261C204.796 184.366 205.665 183.599 207.174 183.599C208.606 183.599 209.39 184.332 209.39 185.619V185.67C209.39 186.557 208.461 186.599 206.151 186.847C203.612 187.119 201.183 187.878 201.183 190.827C201.183 193.401 203.066 194.764 205.563 194.764ZM206.364 192.497C205.077 192.497 204.157 191.909 204.157 190.776C204.157 189.591 205.188 189.097 206.569 188.901C207.379 188.79 208.998 188.585 209.398 188.261V189.804C209.398 191.261 208.222 192.497 206.364 192.497ZM221.271 199.631C224.808 199.631 227.415 198.011 227.415 194.713V181.409H224.373V183.574H224.202C223.734 182.628 222.754 181.239 220.444 181.239C217.418 181.239 215.04 183.608 215.04 187.912C215.04 192.182 217.418 194.312 220.435 194.312C222.677 194.312 223.725 193.111 224.202 192.148H224.356V194.628C224.356 196.503 223.077 197.295 221.322 197.295C219.464 197.295 218.646 196.418 218.271 195.702L215.492 196.375C216.055 198.156 217.938 199.631 221.271 199.631ZM221.296 191.892C219.259 191.892 218.185 190.307 218.185 187.895C218.185 185.517 219.242 183.77 221.296 183.77C223.282 183.77 224.373 185.415 224.373 187.895C224.373 190.392 223.265 191.892 221.296 191.892ZM236.373 194.756C239.424 194.756 241.521 193.264 242.066 190.989L239.185 190.665C238.768 191.773 237.745 192.352 236.415 192.352C234.421 192.352 233.1 191.04 233.075 188.798H242.194V187.852C242.194 183.259 239.433 181.239 236.211 181.239C232.461 181.239 230.015 183.991 230.015 188.031C230.015 192.139 232.427 194.756 236.373 194.756ZM233.083 186.719C233.177 185.048 234.413 183.642 236.254 183.642C238.026 183.642 239.219 184.938 239.237 186.719H233.083ZM255.151 184.869C254.724 182.653 252.952 181.239 249.884 181.239C246.73 181.239 244.582 182.79 244.591 185.21C244.582 187.119 245.759 188.381 248.273 188.901L250.506 189.369C251.707 189.634 252.27 190.119 252.27 190.861C252.27 191.756 251.298 192.429 249.832 192.429C248.418 192.429 247.497 191.815 247.233 190.639L244.224 190.929C244.608 193.332 246.628 194.756 249.841 194.756C253.114 194.756 255.423 193.06 255.432 190.58C255.423 188.713 254.222 187.571 251.75 187.034L249.517 186.557C248.188 186.259 247.659 185.798 247.668 185.04C247.659 184.153 248.639 183.54 249.926 183.54C251.349 183.54 252.099 184.315 252.338 185.176L255.151 184.869Z" fill="#344563"/>
</g>
<rect x="400.5" y="21" width="370" height="317" rx="8.5" fill="#EBF0EE" stroke="#C1C7D0"/>
<g clip-path="url(#clip2_34_2395)">
<path d="M515.573 194.5H518.735V187.085H525.988V184.435H518.735V179.696H526.755V177.045H515.573V194.5ZM529.312 194.5H532.397V186.804C532.397 185.142 533.65 183.966 535.346 183.966C535.866 183.966 536.513 184.06 536.778 184.145V181.307C536.496 181.256 536.011 181.222 535.67 181.222C534.17 181.222 532.917 182.074 532.44 183.591H532.303V181.409H529.312V194.5ZM542.337 194.764C544.391 194.764 545.618 193.801 546.18 192.702H546.283V194.5H549.249V185.739C549.249 182.278 546.428 181.239 543.93 181.239C541.178 181.239 539.064 182.466 538.382 184.852L541.263 185.261C541.57 184.366 542.439 183.599 543.947 183.599C545.379 183.599 546.163 184.332 546.163 185.619V185.67C546.163 186.557 545.234 186.599 542.925 186.847C540.385 187.119 537.956 187.878 537.956 190.827C537.956 193.401 539.839 194.764 542.337 194.764ZM543.138 192.497C541.851 192.497 540.93 191.909 540.93 190.776C540.93 189.591 541.962 189.097 543.342 188.901C544.152 188.79 545.771 188.585 546.172 188.261V189.804C546.172 191.261 544.996 192.497 543.138 192.497ZM552.351 194.5H555.436V186.54C555.436 184.929 556.51 183.838 557.839 183.838C559.143 183.838 560.038 184.716 560.038 186.062V194.5H563.064V186.335C563.064 184.861 563.942 183.838 565.433 183.838C566.678 183.838 567.666 184.571 567.666 186.19V194.5H570.76V185.713C570.76 182.79 569.072 181.239 566.669 181.239C564.768 181.239 563.32 182.176 562.74 183.634H562.604C562.101 182.151 560.831 181.239 559.067 181.239C557.311 181.239 555.999 182.142 555.453 183.634H555.3V181.409H552.351V194.5ZM579.685 194.756C582.737 194.756 584.833 193.264 585.379 190.989L582.498 190.665C582.08 191.773 581.058 192.352 579.728 192.352C577.734 192.352 576.413 191.04 576.387 188.798H585.506V187.852C585.506 183.259 582.745 181.239 579.523 181.239C575.773 181.239 573.327 183.991 573.327 188.031C573.327 192.139 575.739 194.756 579.685 194.756ZM576.396 186.719C576.489 185.048 577.725 183.642 579.566 183.642C581.339 183.642 582.532 184.938 582.549 186.719H576.396ZM590.748 194.5H593.969L596.424 185.653H596.603L599.058 194.5H602.271L605.978 181.409H602.825L600.558 190.562H600.43L598.077 181.409H594.967L592.614 190.614H592.495L590.194 181.409H587.049L590.748 194.5ZM613.491 194.756C617.326 194.756 619.763 192.054 619.763 188.006C619.763 183.949 617.326 181.239 613.491 181.239C609.656 181.239 607.218 183.949 607.218 188.006C607.218 192.054 609.656 194.756 613.491 194.756ZM613.508 192.284C611.386 192.284 610.346 190.392 610.346 187.997C610.346 185.602 611.386 183.685 613.508 183.685C615.596 183.685 616.636 185.602 616.636 187.997C616.636 190.392 615.596 192.284 613.508 192.284ZM622.382 194.5H625.467V186.804C625.467 185.142 626.72 183.966 628.416 183.966C628.936 183.966 629.584 184.06 629.848 184.145V181.307C629.567 181.256 629.081 181.222 628.74 181.222C627.24 181.222 625.987 182.074 625.51 183.591H625.374V181.409H622.382V194.5ZM631.898 194.5H634.983V190.102L636.108 188.901L640.114 194.5H643.804L638.435 187.06L643.506 181.409H639.901L635.196 186.668H634.983V177.045H631.898V194.5ZM655.908 184.869C655.482 182.653 653.71 181.239 650.641 181.239C647.488 181.239 645.34 182.79 645.349 185.21C645.34 187.119 646.516 188.381 649.031 188.901L651.263 189.369C652.465 189.634 653.028 190.119 653.028 190.861C653.028 191.756 652.056 192.429 650.59 192.429C649.175 192.429 648.255 191.815 647.991 190.639L644.982 190.929C645.366 193.332 647.386 194.756 650.599 194.756C653.871 194.756 656.181 193.06 656.19 190.58C656.181 188.713 654.979 187.571 652.508 187.034L650.275 186.557C648.945 186.259 648.417 185.798 648.425 185.04C648.417 184.153 649.397 183.54 650.684 183.54C652.107 183.54 652.857 184.315 653.096 185.176L655.908 184.869Z" fill="#344563"/>
</g>
<g filter="url(#filter1_d_34_2395)">
<circle cx="586" cy="101.5" r="40" fill="white"/>
</g>
<path d="M578 106.3C578 106.7 578.2 107.1 578.6 107.3L583.6 110.3C584.2 110.7 584.8 110.3 584.8 109.7V104.1C584.8 103.9 584.6 103.5 584.4 103.5L579.2 100.1C578.8 99.8999 578 100.3 578 100.9V106.3Z" fill="#091E42"/>
<path d="M585.6 103.9V109.5C585.6 110.1 586.2 110.5 586.8 110.1L591.8 107.1C592.2 106.9 592.4 106.5 592.4 106.1V100.9C592.4 100.3 591.8 99.8997 591.2 100.3L586 103.1C585.8 103.3 585.6 103.5 585.6 103.9Z" fill="#091E42"/>
<path d="M591.2 99.2998L585.6 102.5C585.4 102.7 585 102.7 584.8 102.5L579.2 99.2998C578.6 98.8998 578.6 98.2998 579.2 97.8998L584.8 94.6998C585 94.4998 585.4 94.4998 585.6 94.6998L591.2 97.8998C591.8 98.0998 591.8 98.8998 591.2 99.2998Z" fill="#36B37E"/>
<path d="M566 117.5C566 117.9 566.2 118.3 566.6 118.5L571.6 121.5C572.2 121.9 572.8 121.5 572.8 120.9V115.3C572.8 115.1 572.6 114.7 572.4 114.7L567.2 111.7C566.6 111.3 566 111.7 566 112.3V117.5V117.5Z" fill="#091E42"/>
<path d="M573.6 114.9V120.5C573.6 121.1 574.2 121.5 574.8 121.1L579.8 118.1C580.2 117.9 580.4 117.5 580.4 117.1V111.5C580.4 110.9 579.8 110.5 579.2 110.9L574 114.3C573.8 114.5 573.6 114.7 573.6 114.9Z" fill="#091E42"/>
<path d="M579.2 110.3L573.6 113.5C573.4 113.7 573 113.7 572.8 113.5L567.2 110.3C566.6 109.9 566.6 109.3 567.2 108.9L572.8 105.7C573 105.5 573.4 105.5 573.6 105.7L579.2 108.9C579.6 109.3 579.6 110.1 579.2 110.3Z" fill="#36B37E"/>
<path d="M590.2 117.5C590.2 117.9 590.4 118.3 590.8 118.5L595.8 121.5C596.4 121.9 597 121.5 597 120.9V115.3C597 115.1 596.8 114.7 596.6 114.7L591.4 111.7C590.8 111.3 590.2 111.7 590.2 112.3V117.5Z" fill="#091E42"/>
<path d="M597.6 114.9V120.5C597.6 121.1 598.2 121.5 598.8 121.1L603.8 118.1C604.2 117.9 604.4 117.5 604.4 117.1V111.5C604.4 110.9 603.8 110.5 603.2 110.9L598 114.3C597.8 114.5 597.6 114.7 597.6 114.9Z" fill="#091E42"/>
<path d="M603.2 110.3L597.6 113.5C597.4 113.7 597 113.7 596.8 113.5L591.2 110.3C590.6 109.9 590.6 109.3 591.2 108.9L596.8 105.7C597 105.5 597.4 105.5 597.6 105.7L603.2 108.9C603.8 109.3 603.8 110.1 603.2 110.3Z" fill="#36B37E"/>
<path d="M566 95.3005C566 95.7005 566.2 96.1005 566.6 96.3005L571.6 99.3005C572 99.5005 572.8 99.1005 572.8 98.5005V92.7005C572.8 92.5005 572.6 92.1005 572.4 92.1005L567.2 89.1005C566.6 88.9005 566 89.1005 566 89.9005V95.3005Z" fill="#091E42"/>
<path d="M573.6 92.6997V98.2997C573.6 98.8997 574.2 99.2997 574.8 98.8997L579.8 95.8997C580.2 95.6997 580.4 95.2997 580.4 94.8997V89.8997C580.4 89.2997 579.8 88.8997 579.2 89.2997L574 92.0997C573.8 92.2997 573.6 92.4997 573.6 92.6997Z" fill="#091E42"/>
<path d="M579.2 88.1L573.6 91.3C573.4 91.5 573 91.5 572.8 91.3L567.2 88.1C566.6 87.7 566.6 87.1 567.2 86.7L572.8 83.5C573 83.5 573.4 83.5 573.6 83.7L579.2 86.9C579.6 87.1 579.6 87.9 579.2 88.1Z" fill="#36B37E"/>
<path d="M590.2 95.3005C590.2 95.7005 590.4 96.1005 590.8 96.3005L595.8 99.3005C596.4 99.7005 597 99.3005 597 98.7005V92.7005C597 92.5005 596.8 92.1005 596.6 92.1005L591.4 89.1005C590.8 88.7005 590.2 89.1005 590.2 89.7005V95.3005Z" fill="#091E42"/>
<path d="M597.6 92.6997V98.2997C597.6 98.8997 598.2 99.2997 598.8 98.8997L603.8 95.8997C604.2 95.6997 604.4 95.2997 604.4 94.8997V89.8997C604.4 89.2997 603.8 88.8997 603.2 89.2997L598 92.0997C597.8 92.2997 597.6 92.4997 597.6 92.6997Z" fill="#091E42"/>
<path d="M603.2 88.0998L597.6 91.4998C597.4 91.4998 597.2 91.4998 596.8 91.4998L591.2 88.2998C590.6 87.8998 590.6 87.2998 591.2 86.8998L596.8 83.6998C597 83.4998 597.4 83.4998 597.6 83.6998L603.2 86.8998C603.8 87.0998 603.8 87.8998 603.2 88.0998Z" fill="#36B37E"/>
<rect x="793.5" y="21" width="370" height="317" rx="8.5" fill="#EBF0EE" stroke="#C1C7D0"/>
<g clip-path="url(#clip3_34_2395)">
<path d="M959.11 181.844H962.152C962.093 178.895 959.578 176.807 955.863 176.807C952.198 176.807 949.445 178.869 949.453 181.955C949.453 184.46 951.235 185.901 954.107 186.642L956.093 187.153C957.976 187.631 959.221 188.219 959.229 189.574C959.221 191.065 957.806 192.062 955.743 192.062C953.766 192.062 952.232 191.176 952.104 189.344H948.993C949.121 192.812 951.703 194.764 955.769 194.764C959.953 194.764 962.382 192.676 962.391 189.599C962.382 186.574 959.885 185.193 957.26 184.571L955.624 184.162C954.192 183.821 952.641 183.216 952.658 181.759C952.667 180.446 953.843 179.483 955.82 179.483C957.703 179.483 958.948 180.361 959.11 181.844ZM965.074 194.5H968.159V190.102L969.284 188.901L973.289 194.5H976.98L971.61 187.06L976.681 181.409H973.076L968.372 186.668H968.159V177.045H965.074V194.5ZM978.738 194.5H981.823V181.409H978.738V194.5ZM980.289 179.551C981.269 179.551 982.07 178.801 982.07 177.881C982.07 176.952 981.269 176.202 980.289 176.202C979.3 176.202 978.499 176.952 978.499 177.881C978.499 178.801 979.3 179.551 980.289 179.551ZM988.081 177.045H984.995V194.5H988.081V177.045ZM994.338 177.045H991.253V194.5H994.338V177.045ZM1007.86 184.869C1007.43 182.653 1005.66 181.239 1002.59 181.239C999.437 181.239 997.289 182.79 997.298 185.21C997.289 187.119 998.466 188.381 1000.98 188.901L1003.21 189.369C1004.41 189.634 1004.98 190.119 1004.98 190.861C1004.98 191.756 1004.01 192.429 1002.54 192.429C1001.12 192.429 1000.2 191.815 999.94 190.639L996.931 190.929C997.315 193.332 999.335 194.756 1002.55 194.756C1005.82 194.756 1008.13 193.06 1008.14 190.58C1008.13 188.713 1006.93 187.571 1004.46 187.034L1002.22 186.557C1000.89 186.259 1000.37 185.798 1000.37 185.04C1000.37 184.153 1001.35 183.54 1002.63 183.54C1004.06 183.54 1004.81 184.315 1005.05 185.176L1007.86 184.869Z" fill="#344563"/>
</g>
<g filter="url(#filter2_d_34_2395)">
<circle cx="979" cy="101.5" r="40" fill="white"/>
</g>
<g clip-path="url(#clip4_34_2395)">
<path d="M975.2 81.5H984.2C985.4 81.5 986.2 82.7 986 83.9L981.6 98.3H986.2C987.6 98.3 988.6 99.7 988 101.1L979 119.5C978.6 120.1 977.6 119.9 977.8 119.1L980 105.1H973C971.8 105.1 971 104.1 971.2 102.9L973.4 83.3C973.4 82.3 974.2 81.5 975.2 81.5Z" fill="#36B37E"/>
<path d="M957.437 94.1706L960.644 92.3185C961.072 92.0716 961.608 92.3406 961.787 92.8153L963.222 98.9238L964.862 97.9772C965.361 97.6891 966.009 97.9892 966.088 98.6185L966.718 107.119C966.701 107.418 966.303 107.552 966.207 107.221L964.071 101.71L961.576 103.151C961.148 103.397 960.654 103.201 960.475 102.726L957.171 95.1914C956.962 94.83 957.08 94.3764 957.437 94.1706Z" fill="#091E42"/>
<path d="M1001.63 94.1706L998.418 92.3185C997.99 92.0716 997.455 92.3406 997.276 92.8153L995.84 98.9238L994.2 97.9772C993.701 97.6891 993.053 97.9892 992.975 98.6185L992.344 107.119C992.361 107.418 992.76 107.552 992.855 107.221L994.992 101.71L997.487 103.151C997.914 103.397 998.408 103.201 998.587 102.726L1001.89 95.1914C1002.1 94.83 1001.98 94.3764 1001.63 94.1706Z" fill="#091E42"/>
</g>
<defs>
<filter id="filter0_d_34_2395" x="129" y="53.5" width="128" height="128" filterUnits="userSpaceOnUse" color-interpolation-filters="sRGB">
<feFlood flood-opacity="0" result="BackgroundImageFix"/>
<feColorMatrix in="SourceAlpha" type="matrix" values="0 0 0 0 0 0 0 0 0 0 0 0 0 0 0 0 0 0 127 0" result="hardAlpha"/>
<feOffset dy="16"/>
<feGaussianBlur stdDeviation="12"/>
<feColorMatrix type="matrix" values="0 0 0 0 0.145573 0 0 0 0 0.185183 0 0 0 0 0.5375 0 0 0 0.08 0"/>
<feBlend mode="normal" in2="BackgroundImageFix" result="effect1_dropShadow_34_2395"/>
<feBlend mode="normal" in="SourceGraphic" in2="effect1_dropShadow_34_2395" result="shape"/>
</filter>
<filter id="filter1_d_34_2395" x="522" y="53.5" width="128" height="128" filterUnits="userSpaceOnUse" color-interpolation-filters="sRGB">
<feFlood flood-opacity="0" result="BackgroundImageFix"/>
<feColorMatrix in="SourceAlpha" type="matrix" values="0 0 0 0 0 0 0 0 0 0 0 0 0 0 0 0 0 0 127 0" result="hardAlpha"/>
<feOffset dy="16"/>
<feGaussianBlur stdDeviation="12"/>
<feColorMatrix type="matrix" values="0 0 0 0 0.145573 0 0 0 0 0.185183 0 0 0 0 0.5375 0 0 0 0.08 0"/>
<feBlend mode="normal" in2="BackgroundImageFix" result="effect1_dropShadow_34_2395"/>
<feBlend mode="normal" in="SourceGraphic" in2="effect1_dropShadow_34_2395" result="shape"/>
</filter>
<filter id="filter2_d_34_2395" x="915" y="53.5" width="128" height="128" filterUnits="userSpaceOnUse" color-interpolation-filters="sRGB">
<feFlood flood-opacity="0" result="BackgroundImageFix"/>
<feColorMatrix in="SourceAlpha" type="matrix" values="0 0 0 0 0 0 0 0 0 0 0 0 0 0 0 0 0 0 127 0" result="hardAlpha"/>
<feOffset dy="16"/>
<feGaussianBlur stdDeviation="12"/>
<feColorMatrix type="matrix" values="0 0 0 0 0.145573 0 0 0 0 0.185183 0 0 0 0 0.5375 0 0 0 0.08 0"/>
<feBlend mode="normal" in2="BackgroundImageFix" result="effect1_dropShadow_34_2395"/>
<feBlend mode="normal" in="SourceGraphic" in2="effect1_dropShadow_34_2395" result="shape"/>
</filter>
<clipPath id="clip0_34_2395">
<rect width="44" height="44" fill="white" transform="translate(171 79.5)"/>
</clipPath>
<clipPath id="clip1_34_2395">
<rect width="337" height="96" fill="white" transform="translate(24 169.5)"/>
</clipPath>
<clipPath id="clip2_34_2395">
<rect width="337" height="144" fill="white" transform="translate(417 169.5)"/>
</clipPath>
<clipPath id="clip3_34_2395">
<rect width="337" height="144" fill="white" transform="translate(810 169.5)"/>
</clipPath>
<clipPath id="clip4_34_2395">
<rect width="48" height="48" fill="white" transform="translate(955 77.5)"/>
</clipPath>
</defs>
</svg>
